<svg width="86" height="93" viewBox="0 0 86 93" fill="none" xmlns="http://www.w3.org/2000/svg">
<path fill-rule="evenodd" clip-rule="evenodd" d="M80.896 27.6707L78.1469 22.9003C75.8212 18.8638 70.6672 17.4713 66.6252 19.7874V19.7874C64.7011 20.9208 62.4053 21.2424 60.2439 20.6812C58.0824 20.12 56.233 18.7221 55.1034 16.7958C54.3768 15.5714 53.9863 14.1768 53.9715 12.7531V12.7531C54.037 10.4705 53.1759 8.25851 51.5842 6.6211C49.9925 4.9837 47.8058 4.06029 45.5222 4.06123H39.9837C37.7465 4.06121 35.6015 4.95269 34.0234 6.53841C32.4453 8.12412 31.5641 10.2733 31.5748 12.5105V12.5105C31.5085 17.1295 27.745 20.839 23.1256 20.8385C21.7018 20.8237 20.3072 20.4332 19.0828 19.7065V19.7065C15.0408 17.3905 9.88681 18.783 7.56111 22.8194L4.60993 27.6707C2.28704 31.7021 3.66058 36.8529 7.68239 39.1924V39.1924C10.2966 40.7017 11.9071 43.4911 11.9071 46.5097C11.9071 49.5284 10.2966 52.3178 7.68239 53.8271V53.8271C3.66569 56.1508 2.29065 61.2891 4.60993 65.3084V65.3084L7.3994 70.1192C8.48909 72.0854 10.3174 73.5364 12.4798 74.1509C14.6421 74.7655 16.9602 74.493 18.9211 73.3938V73.3938C20.8488 72.269 23.146 71.9608 25.302 72.5378C27.458 73.1147 29.2942 74.529 30.4025 76.4663C31.1291 77.6907 31.5196 79.0853 31.5344 80.509V80.509C31.5344 85.1754 35.3173 88.9583 39.9837 88.9583H45.5222C50.1729 88.9583 53.9492 85.2 53.9715 80.5494V80.5494C53.9607 78.3052 54.8474 76.1498 56.4343 74.5629C58.0212 72.976 60.1766 72.0893 62.4208 72.1001C63.8411 72.1382 65.2299 72.527 66.4635 73.2321V73.2321C70.4949 75.555 75.6457 74.1814 77.9852 70.1596V70.1596L80.896 65.3084C82.0226 63.3745 82.3319 61.0713 81.7552 58.9087C81.1785 56.7462 79.7635 54.9027 77.8235 53.7866V53.7866C75.8835 52.6706 74.4685 50.8271 73.8918 48.6646C73.3151 46.502 73.6244 44.1988 74.751 42.2649C75.4837 40.9857 76.5443 39.9251 77.8235 39.1924V39.1924C81.8212 36.8542 83.1915 31.7335 80.896 27.7111V27.7111V27.6707Z" stroke="#F1F1F1" stroke-width="6.625" stroke-linecap="round" stroke-linejoin="round"/>
<circle cx="42.7731" cy="46.5099" r="11.643" stroke="#F1F1F1" stroke-width="6.625" stroke-linecap="round" stroke-linejoin="round"/>
</svg>
