<svg width="90" height="88" viewBox="0 0 90 88" fill="none" xmlns="http://www.w3.org/2000/svg">
<path d="M4.38501 60.3567C4.38501 60.3567 5.01218 68.0329 5.15793 70.4532C5.35226 73.6995 6.60659 77.3256 8.70009 79.8431C11.6548 83.4117 15.1352 84.6705 19.7815 84.6793C25.2449 84.6881 64.9728 84.6881 70.4363 84.6793C75.0826 84.6705 78.5629 83.4117 81.5177 79.8431C83.6112 77.3256 84.8655 73.6995 85.0643 70.4532C85.2056 68.0329 85.8328 60.3567 85.8328 60.3567" stroke="#F1F1F1" stroke-width="6.625" stroke-linecap="round" stroke-linejoin="round"/>
<path d="M29.5242 15.5386V13.9C29.5242 8.51168 33.8878 4.14801 39.2762 4.14801H50.68C56.0639 4.14801 60.432 8.51168 60.432 13.9L60.4364 15.5386" stroke="#F1F1F1" stroke-width="6.625" stroke-linecap="round" stroke-linejoin="round"/>
<path d="M44.9781 65.662V59.9468" stroke="#F1F1F1" stroke-width="6.625" stroke-linecap="round" stroke-linejoin="round"/>
<path fill-rule="evenodd" clip-rule="evenodd" d="M4.14551 29.0518V44.3644C12.6167 49.9515 22.7662 53.8646 33.905 55.4149C35.2388 50.5521 39.6246 46.9879 44.9555 46.9879C50.2025 46.9879 54.6766 50.5521 55.9221 55.459C67.1051 53.9088 77.2943 49.9956 85.8097 44.3644V29.0518C85.8097 21.57 79.7898 15.5456 72.3079 15.5456H17.6914C10.2096 15.5456 4.14551 21.57 4.14551 29.0518Z" stroke="#F1F1F1" stroke-width="6.625" stroke-linecap="round" stroke-linejoin="round"/>
</svg>
